<svg clip-rule="evenodd" fill-rule="evenodd" stroke-linejoin="round" stroke-miterlimit="2" viewBox="0 0 560 400" xmlns="http://www.w3.org/2000/svg"><path d="m12.029 18.26v.011c4.059.88 8.664 2.302 8.664 7.197 0 4.894-3.813 7.831-10.123 7.831-4.954 0-8.664-2.046-10.472-5.682-.082-.164-.016-.356.142-.438l4.556-2.258c.159-.082.35-.017.432.142 1.092 2.165 2.9 3.281 5.337 3.281 2.638 0 3.96-.738 3.96-2.302s-1.813-1.909-5.878-2.789c-4.064-.881-8.647-2.155-8.647-7.197 0-4.747 3.764-7.733 9.822-7.733 4.61 0 8.112 1.799 10.008 5.086.092.159.032.366-.132.449l-4.566 2.307c-.148.077-.328.028-.415-.115-1.159-1.842-2.732-2.783-4.884-2.783-2.447 0-3.671.733-3.671 2.204 0 1.564 1.808 1.908 5.867 2.789zm24.473-9.937v.006c5.479 0 9.39 4.211 9.39 10.183v14.213c0 .18-.142.322-.322.322h-5.714c-.18 0-.322-.142-.322-.322v-14.213c0-2.789-2.054-4.851-4.889-4.851-2.836 0-4.939 2.105-4.939 4.851v14.213c0 .18-.142.322-.322.322h-5.714c-.18 0-.322-.142-.322-.322v-32.402c0-.181.142-.323.322-.323h5.714c.18 0 .322.142.322.323v10.439c0 .143.17.214.273.115 1.645-1.635 3.934-2.554 6.523-2.554zm20.994-.924-.011-.005c8.61 0 14.87 5.829 14.87 13.808 0 7.443-5.381 12.633-12.865 12.633-6.408 0-11.002-4.31-11.002-10.085 0-3.817 2.234-6.66 5.419-7.842.148-.054.312.006.388.137l2.376 4.025c.099.159.039.361-.125.448-1.579.826-2.185 1.997-2.185 3.424 0 2.494 2.103 4.26 5.135 4.26 3.72 0 6.653-2.937 6.653-6.901 0-4.654-3.665-8.176-8.653-8.176-1.852-.011-3.665.487-5.249 1.444-.153.093-.35.038-.443-.115l-2.518-4.304c-.088-.148-.038-.339.104-.432 2.086-1.373 5.003-2.319 8.106-2.319zm31.568.881.005-.006c6.697 0 11.931 5.431 11.931 12.485 0 7.055-5.228 12.485-11.931 12.485-2.846 0-5.332-1.023-7.211-2.773-.104-.093-.273-.021-.273.121v10.609c0 .18-.142.323-.322.323h-5.714c-.18 0-.322-.143-.322-.323v-32.353c0-.18.142-.322.322-.322h5.566c.181 0 .323.142.323.322v2.264c0 .143.169.219.273.115 1.884-1.881 4.463-2.947 7.353-2.947zm-1.082 19.484h.005c3.86-.002 6.698-2.987 6.698-7.049 0-4.063-2.879-7.049-6.698-7.049-3.818 0-6.702 3.035-6.702 7.049 0 4.012 2.887 7.046 6.697 7.049z" fill="#5433eb" transform="matrix(3.56436 0 0 3.56436 100 125.997)"/></svg>